<svg xmlns="http://www.w3.org/2000/svg" version="1.1" xmlns:xlink="http://www.w3.org/1999/xlink" xmlns:svgjs="http://svgjs.com/svgjs" width="697.5" height="864.03"><svg id="SvgjsSvg1001" data-name="Layer 2" xmlns="http://www.w3.org/2000/svg" viewBox="0 0 697.5 864.03">
  <defs>
    <style>
      .cls-1 {
        fill: #a67c52;
        font-size: 600.74px;
      }

      .cls-1, .cls-2 {
        font-family: Noteworthy-Light, Noteworthy;
        font-weight: 300;
      }

      .cls-1, .cls-3 {
        stroke: #f2f2f2;
        stroke-miterlimit: 10;
      }

      .cls-2 {
        fill: #ff7bac;
        font-size: 578.76px;
      }

      .cls-3 {
        fill: #000;
      }

      .cls-4 {
        fill: #f2f2f2;
        stroke-width: 0px;
      }
    </style>
  </defs>
  <g id="SvgjsG1000" data-name="Layer 1">
    <rect class="cls-3" x="340" y="98.53" width="3" height="508"></rect>
    <path class="cls-4" d="M356.26,104.37c.78-5.45,2.31-10.75,4.43-15.83l-1.51,3.58c2.71-6.37,6.3-12.3,10.53-17.78l-2.35,3.04c5.67-7.27,12.41-13.6,19.69-19.23l-3.04,2.35c6.42-4.93,13.24-9.33,20.22-13.43s14.42-8.2,22.05-11.44l-3.58,1.51c7.29-3.05,14.81-5.16,22.64-6.24l-3.99.54c6.92-.92,13.9-1.16,20.87-1.17s13.73-.19,20.49.66l-3.99-.54c2.86.39,5.66,1.02,8.35,2.08,1.99.63,3.99.71,5.98.27,2-.09,3.86-.68,5.58-1.78,3.11-1.82,6.08-5.39,6.89-8.96.87-3.84.69-8.15-1.51-11.56l-2.35-3.04c-1.87-1.86-4.08-3.14-6.62-3.86-4.1-1.62-8.43-2.16-12.79-2.68-3.19-.38-6.4-.46-9.6-.51-6.65-.1-13.31-.19-19.96.1-7.71.34-15.49,1.19-23.02,2.88s-14.23,4.42-21.03,7.47c-11.37,5.1-22.36,11.56-32.63,18.6-10.79,7.39-21.2,15.79-29.35,26.1-4.76,6.02-9.15,12.22-12.38,19.2s-5.85,14.08-6.94,21.68c-.63,1.99-.71,3.99-.27,5.98.09,2,.68,3.86,1.78,5.58,1.82,3.11,5.39,6.08,8.96,6.89,3.84.87,8.15.69,11.56-1.51l3.04-2.35c1.86-1.87,3.14-4.08,3.86-6.62h0Z"></path>
    <path class="cls-4" d="M356.5,96.12c-.77-5.62-2.28-11.1-4.43-16.35-2.55-6.21-5.38-12.16-9.13-17.74s-8.13-11.05-12.89-15.94-10.43-9.53-16.06-13.86c-9.48-7.28-19.77-13.73-30.35-19.28-6.41-3.36-13.11-6.35-20.02-8.51-7.25-2.27-14.89-3.33-22.45-3.95-7.11-.58-14.24-.53-21.37-.43-3.45.05-6.91.06-10.34.42-4.56.47-9.18,1.03-13.45,2.8-1.95.46-3.65,1.36-5.1,2.68-1.63,1.06-2.92,2.46-3.86,4.21-1.88,3.22-2.68,7.95-1.51,11.56s3.42,7.13,6.89,8.96l3.58,1.51c2.66.71,5.32.71,7.98,0,2.61-1.08,5.34-1.73,8.14-2.11l-3.99.54c6.28-.8,12.72-.64,19.03-.63s13.14.23,19.65,1.1l-3.99-.54c7.06.98,13.86,2.86,20.44,5.62l-3.58-1.51c7.17,3.05,13.96,6.89,20.62,10.93s12.75,8.07,18.72,12.67l-3.04-2.35c7.4,5.74,14.26,12.19,20.02,19.61l-2.35-3.04c4.28,5.57,7.92,11.6,10.68,18.07l-1.51-3.58c2.3,5.49,3.94,11.21,4.74,17.11.46,1.95,1.36,3.65,2.68,5.1,1.06,1.63,2.46,2.92,4.21,3.86,3.22,1.88,7.95,2.68,11.56,1.51s7.13-3.42,8.96-6.89l1.51-3.58c.71-2.66.71-5.32,0-7.98h0Z"></path>
    <path class="cls-4" d="M352.17,142.63c12.94-8.72,26.64-16.28,40.93-22.55.82-.36,1.64-.71,2.45-1.06,1.78-.77-2.92,1.21-1.12.48.41-.17.82-.34,1.24-.51,1.79-.73,3.58-1.44,5.39-2.13,3.75-1.44,7.52-2.79,11.33-4.05,7.33-2.43,14.77-4.55,22.29-6.33,8.68-2.06,17.45-3.67,26.29-4.86l-3.99.54c21.86-2.87,44.13-3.15,66-.24l-3.99-.54c6.98.96,13.9,2.28,20.71,4.12,3.39.92,6.75,1.97,10.05,3.16,1.5.54,2.99,1.13,4.47,1.71,3.15,1.24-3.01-1.39-.13-.04.79.37,1.58.72,2.37,1.09,5.76,2.73,11.29,5.93,16.55,9.52,1.2.82,2.38,1.65,3.55,2.51.69.51,1.37,1.1,2.09,1.56-3.31-2.09-1.51-1.17-.63-.47,2.61,2.08,5.15,4.26,7.61,6.52,4.68,4.3,9.09,8.89,13.22,13.73.83.97,1.65,1.95,2.45,2.95.48.59.94,1.22,1.43,1.8-2.72-3.19-1.53-2-.94-1.21,1.84,2.46,3.64,4.95,5.35,7.5,3.13,4.69,6.01,9.56,8.62,14.56,1.19,2.28,2.32,4.58,3.39,6.91.54,1.17,1.05,2.34,1.57,3.52,1.2,2.71-1.42-3.49-.32-.74.33.83.67,1.67,1,2.5,4.62,11.83,7.81,24.17,9.54,36.75l-.54-3.99c1.73,13.1,1.84,26.35.1,39.45l.54-3.99c-1.36,9.85-3.73,19.54-7.26,28.84-.4,1.06-.87,2.1-1.25,3.16,1.74-4.86.24-.58-.29.58-1.05,2.3-2.17,4.57-3.36,6.8-2.48,4.65-5.28,9.12-8.34,13.41-.72,1-1.46,1.99-2.19,2.97-1.2,1.61,2.43-3.06.59-.77-.34.43-.68.85-1.03,1.28-1.81,2.23-3.69,4.39-5.63,6.5-3.61,3.92-7.45,7.64-11.46,11.15-1.96,1.72-3.97,3.38-6.01,5-.81.65-2.65,1.94.76-.57-.44.33-.88.67-1.31,1-1.32.99-2.66,1.96-4,2.91-4.39,3.1-8.93,6-13.57,8.7s-9.41,5.23-14.26,7.56c-2.36,1.13-4.74,2.22-7.13,3.27-.63.27-1.27.53-1.89.82,3.63-1.71,1.9-.79,1.04-.45-1.79.72-3.58,1.45-5.38,2.15-11.71,4.51-23.74,8.16-35.9,11.23-24.97,6.3-50.47,10.33-75.88,14.35-29.92,4.73-59.92,8.97-89.91,13.21-3.31.47-7.46,4.04-8.96,6.89-1.6,3.03-2.24,6.15-1.78,9.56.93,6.89,7.27,13.58,14.73,13.01,58.24-4.44,116.67-6.38,175.07-5.74,15.41.17,30.86.4,46.17,2.4l-3.99-.54c7.99,1.09,15.93,2.64,23.65,5,1.97.6,3.92,1.25,5.86,1.95.84.3,1.67.62,2.5.94.36.14.71.29,1.07.43,1.71.66-3.13-1.38-1.46-.62,3.05,1.39,6.05,2.83,8.97,4.48s5.52,3.33,8.14,5.21c.56.4,3.04,2.29.95.68s.12.12.59.51c1.28,1.06,2.53,2.16,3.75,3.29,2.41,2.26,4.69,4.66,6.79,7.21.24.29.47.59.71.88.9,1.08-1.18-1.57-1.19-1.54-.07.22,1.17,1.6,1.33,1.83.94,1.34,1.83,2.71,2.66,4.11.96,1.62,1.85,3.27,2.66,4.97.29.6,1.54,3.48.47.96s.11.39.33,1.02c1.31,3.68,2.21,7.47,2.76,11.34l-.54-3.99c.68,5.32.63,10.65-.06,15.97l.54-3.99c-.53,3.72-1.34,7.39-2.45,10.99-.52,1.68-1.1,3.34-1.74,4.98-.1.27-.24.94-.45,1.13-.14.13,1.39-3.16.72-1.71-.46.99-.89,1.99-1.37,2.97-1.68,3.44-3.6,6.77-5.72,9.96-.97,1.46-1.94,3.04-3.1,4.36-.13.15,2.12-2.65,1.08-1.41-.26.32-.51.64-.77.96-.69.85-1.4,1.68-2.13,2.5-2.58,2.92-5.35,5.67-8.27,8.25-1.42,1.26-2.88,2.48-4.36,3.66-.34.27-.67.56-1.03.81-.11.08,2.63-1.97,1.3-1.02-.95.68-1.87,1.38-2.83,2.06-6.57,4.64-13.57,8.64-20.79,12.18-1.72.84-3.44,1.66-5.18,2.45-.94.43-1.88.85-2.82,1.26-1.01.44-4.75,1.93-.48.23-3.7,1.48-7.38,2.99-11.11,4.38-8.08,3.02-16.25,5.79-24.46,8.43-17.16,5.51-34.54,10.3-52.1,14.36-19.79,4.58-39.79,8.22-59.93,10.95l3.99-.54c-27.61,3.7-55.43,5.65-83.28,5.81-7.84.05-15.36,6.87-15,15s6.59,15.05,15,15c49.46-.29,99.01-6.14,147.2-17.29,23.52-5.44,46.75-12.18,69.5-20.23,22.47-7.95,44.1-17.48,62.89-32.36,17.22-13.63,31-33.35,35.7-55.01,2.56-11.79,2.72-23.99-.34-35.72-2.88-11.06-8.57-20.77-15.67-29.6-13.65-16.98-34.18-27.99-54.96-33.57-23.97-6.43-49.18-6.59-73.83-6.8-50.85-.45-101.71,1.04-152.45,4.45-6.17.42-12.34.86-18.51,1.33,1.33,9.82,2.66,19.64,3.99,29.46,30.16-4.26,60.33-8.53,90.42-13.29,28.72-4.55,57.62-9.08,85.64-17.01,50.17-14.2,101.44-42.26,125.3-90.93,22.1-45.09,18.54-98.45-3.29-142.92-11.53-23.49-28.8-43.79-49.61-59.56-11.23-8.51-23.68-15.02-36.97-19.7-14.54-5.12-30-7.49-45.31-8.72-54.44-4.38-110.45,8.7-157.84,35.7-5.68,3.24-11.23,6.7-16.65,10.35-6.5,4.38-9.97,13.41-5.38,20.52,4.17,6.47,13.56,10.07,20.52,5.38h0Z"></path>
    <path class="cls-4" d="M347.61,117.11c-45.48-30.66-100.69-47.13-155.51-46.85-29.55.15-59.91,4.64-86.02,19.21-23.18,12.93-42.71,32.75-56.79,55.13-25.48,40.5-34.44,93.72-18.78,139.48,8.34,24.37,23.24,45.92,42.7,62.77,20.76,17.97,44.95,30.73,70.72,39.91,26.75,9.54,54.77,14.84,82.71,19.52,30.02,5.04,60.15,9.45,90.29,13.75,7.46,1.06,14.91,2.12,22.37,3.17,1.33-9.82,2.66-19.64,3.99-29.46-50.7-3.87-101.55-5.84-152.4-5.86-25.24-.01-50.64-.28-75.66,3.46-22.85,3.41-44.56,11.92-62.13,27.14-16.67,14.44-27.54,35.42-27.57,57.67s10.82,45.4,26.4,62.15c16.15,17.36,37.62,28.38,59.32,37.12,21.8,8.79,44.48,15.69,67.21,21.6,47.85,12.45,97.27,19.57,146.69,21.18,5.89.19,11.79.3,17.69.33,7.85.05,15.36-6.93,15-15s-6.59-14.95-15-15c-27.86-.16-55.67-2.11-83.28-5.81l3.99.54c-35.72-4.84-71.03-12.59-105.46-23.24-8.46-2.62-16.87-5.4-25.21-8.38-3.75-1.34-7.48-2.72-11.18-4.17-1.91-.75-3.87-1.47-5.74-2.33-.13-.06,3.06,1.31,1.55.65-.4-.18-.81-.35-1.22-.53-1.08-.47-2.16-.95-3.23-1.43-7.34-3.33-14.5-7.06-21.29-11.4-1.6-1.02-3.17-2.07-4.72-3.16-.83-.59-1.66-1.18-2.48-1.79-.34-.25-.76-.49-1.05-.78.39.39,2.53,2,.96.74-3.14-2.52-6.19-5.16-9.05-8.01-1.45-1.45-2.84-2.94-4.19-4.48-.72-.83-1.42-1.66-2.11-2.51-2.09-2.58,1.85,2.53-.17-.22-2.44-3.31-4.65-6.79-6.59-10.41-1.03-1.93-1.95-3.9-2.86-5.88-.67-1.45.86,1.84.72,1.71-.29-.27-.45-1.14-.6-1.51-.39-1.01-.75-2.03-1.09-3.06-1.36-4.08-2.34-8.27-2.94-12.53l.54,3.99c-.69-5.32-.74-10.65-.06-15.97l-.54,3.99c.48-3.36,1.21-6.67,2.27-9.91.23-.72.48-1.43.75-2.14.13-.35.28-.7.41-1.06.49-1.41-.9,1.94-.8,1.84.93-.91,1.49-3.22,2.12-4.4,1.54-2.9,3.36-5.58,5.24-8.27.81-1.15-1.24,1.54-1.2,1.53.13,0,.62-.78.71-.89.48-.59.97-1.17,1.46-1.74,1.16-1.34,2.38-2.64,3.64-3.9.62-.62,6.72-6.71,7.17-6.37.02.02-3.17,2.37-1.2.94.31-.23.62-.46.93-.69.63-.45,1.26-.9,1.89-1.34,1.38-.95,2.79-1.86,4.22-2.73,2.86-1.74,5.82-3.32,8.85-4.74.7-.33,1.4-.64,2.1-.96,2.35-1.06-3.15,1.25-.75.32,1.81-.7,3.62-1.39,5.45-2.01,8.85-3.01,18.01-4.91,27.26-6.16l-3.99.54c13.6-1.78,27.32-2.16,41.01-2.34,14.43-.19,28.86-.23,43.29-.11,29.2.24,58.4,1.11,87.57,2.62,16.47.85,32.93,1.91,49.37,3.17,7.42.57,13.81-6.14,14.73-13.01.43-3.2.02-6.77-1.78-9.56-1.96-3.04-5.21-6.36-8.96-6.89-26.77-3.79-53.55-7.57-80.27-11.71-25.61-3.96-51.32-7.9-76.59-13.71-12.39-2.85-24.67-6.2-36.68-10.39-2.73-.95-5.45-1.95-8.15-2.99-1.5-.58-3-1.17-4.49-1.78-.6-.24-1.19-.5-1.79-.74,4.02,1.56,1.36.57.42.16-5.06-2.2-10.03-4.59-14.9-7.17s-9.41-5.24-13.94-8.14c-2.2-1.41-4.37-2.88-6.51-4.38-1.12-.79-2.24-1.6-3.34-2.42-.44-.33-.88-.66-1.32-.99-2.35-1.76,2.55,2.04.43.33-8.44-6.78-16.3-14.2-23.17-22.59-.43-.53-.85-1.07-1.28-1.6-1.93-2.38,2.16,2.9.34.44-.9-1.21-1.79-2.42-2.65-3.65-1.69-2.42-3.3-4.89-4.81-7.42-1.43-2.4-2.78-4.84-4.04-7.34-.63-1.24-1.23-2.49-1.82-3.75-.21-.46-.42-.92-.63-1.38-.23-.51-1.59-3.68-.44-.98s.09.17-.1-.31c-.28-.7-.55-1.41-.82-2.11-.49-1.29-.95-2.6-1.4-3.91-.89-2.62-1.69-5.27-2.4-7.94-1.47-5.47-2.55-11.03-3.33-16.64l.54,3.99c-1.74-13.1-1.63-26.35.1-39.45l-.54,3.99c1.54-11.18,4.22-22.17,8.05-32.78.44-1.21.89-2.41,1.35-3.61s2.75-6.26.52-1.41c1.18-2.57,2.29-5.16,3.53-7.7,2.49-5.07,5.24-10,8.26-14.77,1.37-2.16,2.79-4.3,4.27-6.39.88-1.25,1.79-2.5,2.71-3.72.31-.41.62-.81.93-1.22-2.99,3.98-.66.87.03.02,3.89-4.8,8.07-9.37,12.5-13.68,2.08-2.03,4.22-3.99,6.42-5.89,1.21-1.05,2.43-2.07,3.68-3.07.56-.45,1.18-.87,1.7-1.36-3.35,3.11-.47.38.43-.28,5.02-3.68,10.31-7.01,15.82-9.9,1.67-.87,3.36-1.71,5.06-2.5.53-.24,1.06-.48,1.58-.72,1.4-.61,1.06-.47-1.02.41.59-.25,1.18-.49,1.78-.72,3.56-1.41,7.19-2.65,10.87-3.73,7.68-2.26,15.54-3.81,23.47-4.9l-3.99.54c21.87-2.91,44.15-2.62,66,.24l-3.99-.54c15.47,2.08,30.74,5.48,45.61,10.23,3.68,1.17,7.34,2.43,10.96,3.76,1.81.67,3.62,1.35,5.42,2.06.83.33,1.66.66,2.48.99.41.17.83.34,1.24.51,2.17.89.44.14-.7-.31,7.15,2.83,14.12,6.37,20.9,9.99,7.87,4.2,15.5,8.81,22.89,13.8,6.52,4.4,16.9,1.47,20.52-5.38,4-7.57,1.58-15.83-5.38-20.52h0Z"></path>
    <text class="cls-1" transform="translate(293.57 604.47) scale(1.06 1)" svgjs:data="{&quot;leading&quot;:&quot;1.3&quot;}"><tspan x="0" y="0" svgjs:data="{&quot;leading&quot;:&quot;1.3&quot;}">B</tspan></text>
    <text class="cls-2" transform="translate(0 571.94) scale(1.18 1)" svgjs:data="{&quot;leading&quot;:&quot;1.3&quot;}"><tspan x="0" y="0" svgjs:data="{&quot;leading&quot;:&quot;1.3&quot;}">S</tspan></text>
  </g>
</svg><style>@media (prefers-color-scheme: light) { :root { filter: none; } }
</style></svg>